/* XPM */
static const char * hex16_xpm[] = {
"16 16 59 1",
" 	c None",
".	c #000000",
"+	c #737373",
"@	c #A1A1A1",
"#	c #D4D4D4",
"$	c #B4B4B4",
"%	c #575757",
"&	c #B5B5B5",
"*	c #D3D3D3",
"=	c #323232",
"-	c #FAFAFA",
";	c #FBFBFB",
">	c #343434",
",	c #181818",
"'	c #5F5F5F",
")	c #080808",
"!	c #383838",
"~	c #464646",
"{	c #646464",
"]	c #B3B3B3",
"^	c #C1C1C1",
"/	c #B2B2B2",
"(	c #1D1D1D",
"_	c #FFFFFF",
":	c #2C2C2C",
"<	c #787878",
"[	c #A0A0A0",
"}	c #F7F7F7",
"|	c #555555",
"1	c #DFDFDF",
"2	c #5D5D5D",
"3	c #747474",
"4	c #A2A2A2",
"5	c #A3A3A3",
"6	c #232323",
"7	c #565656",
"8	c #C5C5C5",
"9	c #4F4F4F",
"0	c #F3F3F3",
"a	c #E7E7E7",
"b	c #111111",
"c	c #0B0B0B",
"d	c #0C0C0C",
"e	c #1B1B1B",
"f	c #0F0F0F",
"g	c #B8B8B8",
"h	c #A8A8A8",
"i	c #6F6F6F",
"j	c #CECECE",
"k	c #6D6D6D",
"l	c #040404",
"m	c #F8F8F8",
"n	c #6E6E6E",
"o	c #030303",
"p	c #676767",
"q	c #101010",
"r	c #3B3B3B",
"s	c #1C1C1C",
"t	c #0A0A0A",
"                ",
"                ",
"                ",
"  .+@+.         ",
" .#$%&*.        ",
" =-. .;>,')  !~ ",
" {]   ]{.^/.(_: ",
" <[   [< .}|12  ",
" 34   53  6_[   ",
" 7^   8|  90a.  ",
" b_c d_b e_fgh  ",
"  i_j_k lmn o_p ",
"   qrf  fs.  te ",
"                ",
"                ",
"                "};
