/* XPM */
static const char * hex24_xpm[] = {
"24 24 112 2",
"  	c None",
". 	c #000000",
"+ 	c #161616",
"@ 	c #0A0A0A",
"# 	c #656565",
"$ 	c #DCDCDC",
"% 	c #EAEAEA",
"& 	c #B6B6B6",
"* 	c #181818",
"= 	c #6B6B6B",
"- 	c #FFFFFF",
"; 	c #E0E0E0",
"> 	c #A9A9A9",
", 	c #C0C0C0",
"' 	c #F8F8F8",
") 	c #EEEEEE",
"! 	c #1D1D1D",
"~ 	c #141414",
"{ 	c #B1B1B1",
"] 	c #050505",
"^ 	c #4B4B4B",
"/ 	c #888888",
"( 	c #030303",
"_ 	c #737373",
": 	c #FEFEFE",
"< 	c #4D4D4D",
"[ 	c #C1C1C1",
"} 	c #D0D0D0",
"| 	c #111111",
"1 	c #808080",
"2 	c #ABABAB",
"3 	c #252525",
"4 	c #969696",
"5 	c #9D9D9D",
"6 	c #242424",
"7 	c #AFAFAF",
"8 	c #F0F0F0",
"9 	c #2F2F2F",
"0 	c #7E7E7E",
"a 	c #FCFCFC",
"b 	c #171717",
"c 	c #525252",
"d 	c #FBFBFB",
"e 	c #D9D9D9",
"f 	c #080808",
"g 	c #010101",
"h 	c #848484",
"i 	c #919191",
"j 	c #D1D1D1",
"k 	c #212121",
"l 	c #626262",
"m 	c #1B1B1B",
"n 	c #818181",
"o 	c #858585",
"p 	c #313131",
"q 	c #A7A7A7",
"r 	c #DDDDDD",
"s 	c #E8E8E8",
"t 	c #1A1A1A",
"u 	c #585858",
"v 	c #343434",
"w 	c #CFCFCF",
"x 	c #121212",
"y 	c #D8D8D8",
"z 	c #1C1C1C",
"A 	c #5C5C5C",
"B 	c #0D0D0D",
"C 	c #D7D7D7",
"D 	c #383838",
"E 	c #C2C2C2",
"F 	c #ECECEC",
"G 	c #262626",
"H 	c #6F6F6F",
"I 	c #191919",
"J 	c #898989",
"K 	c #020202",
"L 	c #939393",
"M 	c #F6F6F6",
"N 	c #3A3A3A",
"O 	c #9E9E9E",
"P 	c #131313",
"Q 	c #303030",
"R 	c #BABABA",
"S 	c #434343",
"T 	c #767676",
"U 	c #F9F9F9",
"V 	c #ADADAD",
"W 	c #0B0B0B",
"X 	c #F2F2F2",
"Y 	c #C8C8C8",
"Z 	c #B4B4B4",
"` 	c #373737",
" .	c #C9C9C9",
"..	c #F5F5F5",
"+.	c #686868",
"@.	c #3D3D3D",
"#.	c #484848",
"$.	c #B7B7B7",
"%.	c #515151",
"&.	c #090909",
"*.	c #404040",
"=.	c #6E6E6E",
"-.	c #040404",
";.	c #8F8F8F",
">.	c #909090",
",.	c #0C0C0C",
"'.	c #3C3C3C",
").	c #676767",
"!.	c #595959",
"~.	c #2D2D2D",
"{.	c #333333",
"].	c #2A2A2A",
"                                                ",
"                                                ",
"                                                ",
"                                                ",
"          . + @ .                               ",
"      . # $ % % & * .                           ",
"    . = - ; > , ' ) !                           ",
"    ~ - { ] . . ^ - / (   . .           . .     ",
"    _ : <       . [ } | @ 1 2 3       ~ 4 5 6   ",
"  . 7 8 9       . 0 a b   c d e f   g h - i .   ",
"  . j % k         l - m   . n - o . p - q .     ",
"  . r s t         u - !     . 2 - v ; w x       ",
"  . y s z         A - !       B C - 8 D         ",
"  . E F G       . H - I       . J - C K         ",
"    L M N       . O s P     . Q - R - 0 g       ",
"    S - T .     K U V W     B X Y . Z - ` .     ",
"    .  ...+.@.#.$.- %.    &.[ : *.. ~ ; ) z     ",
"      * w - U - - =..   -.;.- >..     %.- e ,.  ",
"        . '.).!.@ .     ] ~.{..       . ].9 ~   ",
"                                                ",
"                                                ",
"                                                ",
"                                                ",
"                                                "};
