/* XPM */
static const char * hex32_xpm[] = {
"32 32 90 1",
" 	c None",
".	c #000000",
"+	c #090909",
"@	c #313131",
"#	c #282828",
"$	c #D0D0D0",
"%	c #FFFFFF",
"&	c #272727",
"*	c #2E2E2E",
"=	c #2D2D2D",
"-	c #EAEAEA",
";	c #BEBEBE",
">	c #C0C0C0",
",	c #E8E8E8",
"'	c #464646",
")	c #FDFDFD",
"!	c #434343",
"~	c #999999",
"{	c #A0A0A0",
"]	c #A2A2A2",
"^	c #979797",
"/	c #626262",
"(	c #CACACA",
"_	c #CCCCCC",
":	c #3A3A3A",
"<	c #3E3E3E",
"[	c #616161",
"}	c #6A6A6A",
"|	c #CFCFCF",
"1	c #D4D4D4",
"2	c #FEFEFE",
"3	c #F7F7F7",
"4	c #030303",
"5	c #F3F3F3",
"6	c #CDCDCD",
"7	c #4D4D4D",
"8	c #4C4C4C",
"9	c #F2F2F2",
"0	c #0A0A0A",
"a	c #FBFBFB",
"b	c #BCBCBC",
"c	c #F5F5F5",
"d	c #060606",
"e	c #3D3D3D",
"f	c #383838",
"g	c #666666",
"h	c #2A2A2A",
"i	c #7D7D7D",
"j	c #1C1C1C",
"k	c #646464",
"l	c #3B3B3B",
"m	c #C4C4C4",
"n	c #A8A8A8",
"o	c #FAFAFA",
"p	c #454545",
"q	c #484848",
"r	c #F9F9F9",
"s	c #F6F6F6",
"t	c #EFEFEF",
"u	c #DBDBDB",
"v	c #5C5C5C",
"w	c #DADADA",
"x	c #494949",
"y	c #575757",
"z	c #AAAAAA",
"A	c #8C8C8C",
"B	c #929292",
"C	c #151515",
"D	c #989898",
"E	c #606060",
"F	c #EDEDED",
"G	c #5F5F5F",
"H	c #E2E2E2",
"I	c #C1C1C1",
"J	c #7F7F7F",
"K	c #A9A9A9",
"L	c #070707",
"M	c #B0B0B0",
"N	c #888888",
"O	c #636363",
"P	c #353535",
"Q	c #656565",
"R	c #6E6E6E",
"S	c #2B2B2B",
"T	c #9A9A9A",
"U	c #2C2C2C",
"V	c #020202",
"W	c #535353",
"X	c #797979",
"Y	c #010101",
"                                ",
"                                ",
"                                ",
"                                ",
"                                ",
"                                ",
"     ..+@@+..                   ",
"    .#$%%%%$&.                  ",
"   .*%%%$$%%%=.                 ",
"   .-%;....>%,.                 ",
"  .'%)..  ..%%!......     ..... ",
"  .~%{.    .]%^../(_:.   .<_([. ",
"  .$%}.    .}%|. .1234. ..5%6.  ",
"  .5%7.    .8%9. .0a%b...]%cd.  ",
"  .%%<.    .e%%.  .f%%g.e%%h.   ",
"  .%%f.    .f%%.   .i%%j5%k.    ",
"  .%%:.    .l%%.    .m%%%n.     ",
"  .o%p.    .q%r.    ..s%t..     ",
"  .u%v.    ./%w.    .x%%%y.     ",
"  .z%A.    .B%z.   .C%%D%%j.    ",
"  .E%-.    .F%G.  ..H%~.I2,..   ",
"   .%%i....J%%.   .K%t..La%M.   ",
"   .g%%6NN|%%O.  .[%%P. .p%%Q.  ",
"    .R%%%%%%}.  .S%%T.   .{%%U. ",
"     .VWXXWY.   .Sfl4.   .VlfS. ",
"       ....      ...       ...  ",
"                                ",
"                                ",
"                                ",
"                                ",
"                                ",
"                                "};
