/* XPM */
static const char * hex48_xpm[] = {
"48 48 163 2",
"  	c None",
". 	c #000000",
"+ 	c #050505",
"@ 	c #0C0C0C",
"# 	c #0D0D0D",
"$ 	c #282828",
"% 	c #747474",
"& 	c #A4A4A4",
"* 	c #BDBDBD",
"= 	c #C5C5C5",
"- 	c #8B8B8B",
"; 	c #F1F1F1",
"> 	c #FEFEFE",
", 	c #FFFFFF",
"' 	c #8A8A8A",
") 	c #030303",
"! 	c #929292",
"~ 	c #F4F4F4",
"{ 	c #F2F2F2",
"] 	c #909090",
"^ 	c #525252",
"/ 	c #D4D4D4",
"( 	c #737373",
"_ 	c #464646",
": 	c #3A3A3A",
"< 	c #D5D5D5",
"[ 	c #4E4E4E",
"} 	c #D2D2D2",
"| 	c #101010",
"1 	c #111111",
"2 	c #EFEFEF",
"3 	c #646464",
"4 	c #191919",
"5 	c #1D1D1D",
"6 	c #5F5F5F",
"7 	c #C9C9C9",
"8 	c #A2A2A2",
"9 	c #A7A7A7",
"0 	c #C6C6C6",
"a 	c #080808",
"b 	c #383838",
"c 	c #3B3B3B",
"d 	c #070707",
"e 	c #010101",
"f 	c #242424",
"g 	c #393939",
"h 	c #3D3D3D",
"i 	c #1C1C1C",
"j 	c #141414",
"k 	c #E9E9E9",
"l 	c #414141",
"m 	c #434343",
"n 	c #131313",
"o 	c #A3A3A3",
"p 	c #F6F6F6",
"q 	c #181818",
"r 	c #E7E7E7",
"s 	c #E1E1E1",
"t 	c #1A1A1A",
"u 	c #373737",
"v 	c #DFDFDF",
"w 	c #F9F9F9",
"x 	c #565656",
"y 	c #B7B7B7",
"z 	c #FBFBFB",
"A 	c #626262",
"B 	c #555555",
"C 	c #F8F8F8",
"D 	c #161616",
"E 	c #E8E8E8",
"F 	c #535353",
"G 	c #262626",
"H 	c #EBEBEB",
"I 	c #959595",
"J 	c #686868",
"K 	c #FCFCFC",
"L 	c #D9D9D9",
"M 	c #121212",
"N 	c #616161",
"O 	c #BCBCBC",
"P 	c #323232",
"Q 	c #EEEEEE",
"R 	c #BBBBBB",
"S 	c #757575",
"T 	c #CFCFCF",
"U 	c #CECECE",
"V 	c #A8A8A8",
"W 	c #797979",
"X 	c #B0B0B0",
"Y 	c #E0E0E0",
"Z 	c #7C7C7C",
"` 	c #0E0E0E",
" .	c #C3C3C3",
"..	c #3C3C3C",
"+.	c #FAFAFA",
"@.	c #444444",
"#.	c #7F7F7F",
"$.	c #C7C7C7",
"%.	c #7E7E7E",
"&.	c #E3E3E3",
"*.	c #6F6F6F",
"=.	c #CACACA",
"-.	c #7B7B7B",
";.	c #0F0F0F",
">.	c #D0D0D0",
",.	c #090909",
"'.	c #676767",
").	c #D7D7D7",
"!.	c #DADADA",
"~.	c #666666",
"{.	c #CDCDCD",
"].	c #F7F7F7",
"^.	c #505050",
"/.	c #151515",
"(.	c #ECECEC",
"_.	c #515151",
":.	c #484848",
"<.	c #363636",
"[.	c #1E1E1E",
"}.	c #353535",
"|.	c #2C2C2C",
"1.	c #979797",
"2.	c #C2C2C2",
"3.	c #9F9F9F",
"4.	c #808080",
"5.	c #ADADAD",
"6.	c #B4B4B4",
"7.	c #C4C4C4",
"8.	c #878787",
"9.	c #2A2A2A",
"0.	c #303030",
"a.	c #333333",
"b.	c #E4E4E4",
"c.	c #E6E6E6",
"d.	c #E5E5E5",
"e.	c #F0F0F0",
"f.	c #ABABAB",
"g.	c #606060",
"h.	c #7D7D7D",
"i.	c #212121",
"j.	c #818181",
"k.	c #3E3E3E",
"l.	c #CBCBCB",
"m.	c #B6B6B6",
"n.	c #FDFDFD",
"o.	c #0B0B0B",
"p.	c #424242",
"q.	c #4F4F4F",
"r.	c #F3F3F3",
"s.	c #4A4A4A",
"t.	c #8E8E8E",
"u.	c #313131",
"v.	c #575757",
"w.	c #A6A6A6",
"x.	c #D1D1D1",
"y.	c #DCDCDC",
"z.	c #656565",
"A.	c #696969",
"B.	c #6E6E6E",
"C.	c #020202",
"D.	c #6A6A6A",
"E.	c #707070",
"F.	c #2F2F2F",
"                                                                                                ",
"                                                                                                ",
"                                                                                                ",
"                                                                                                ",
"                                                                                                ",
"                                                                                                ",
"                                                                                                ",
"                                                                                                ",
"                    . . . . . . .                                                               ",
"                . . . + @ # @ + . . .                                                           ",
"              . . $ % & * = * & % $ . .                                                         ",
"          . . . - ; > , , , , , > ; ' . . .                                                     ",
"          . ) ! , , , > ~ { ~ > , , , ] ) .                                                     ",
"        . . ^ , , , / ( _ : _ ( < , , , [ . .                                                   ",
"        . . { , , } | . . . . . 1 < , , 2 . .                                                   ",
"        . 3 , , , 4 . .       . . 5 , , , 6 .     . . . . . .                 . . . . . . .     ",
"      . . 7 , , 8 . .           . . 9 , , 0 . . . a b b b c d .             . e f g b h i .     ",
"      . j k , , l .               . m , , k n . . . o p ; ~ 9 . .         . . q r { { s i .     ",
"      . b ; , , t .               . t , , ; u .   . . v , , w x . .       . . y , , z A . .     ",
"      . B C , k D .               . D E , C F .   . . G H , , v D . .   . . % , > , I . .       ",
"      . J K , L M .               . M L , K J .     . . N z , , O . . . . P Q , , R . .         ",
"      . S , , T | .               . | U , , % .       . . V , , , W . . d X , , Y | . .         ",
"      . Z , , 7 ` .               . ` 7 , , Z .         . e  ., , C ... 6 , , +.@.. .           ",
"      . #., , $.` .               . ` $., , %..         . . 5 &., , 7 $ > , , *.. .             ",
"      . Z , , 7 ` .               . ` =., , -..           . . x C , , z , , & . .               ",
"      . % , , U ;..               . | >., , % .             . . - , , , ,  .,..                 ",
"      . '.K , ).M .               . M !., K ~..               . . {., , ].^.. .                 ",
"      . ^ ]., r /..               . D (., ]._..             . . :., , , ,  .;..                 ",
"      . <.; , , t .               . [., , ; }..           . . |.2 , z , , , 1.. .               ",
"      . ;.k , , :..               . _., , k ;..           . a 2., , 3.4., , , % . .             ",
"      . . = , , 5.. .           . . 6., , 7.. .         . . 8., , H 9.. 2., , p : . .           ",
"        . x , , , 0.. .       . . a., , , B .         . . '., > , J . . t b., , T # .           ",
"        . . c., , v i . . . . . [.Y , , d.. .       . . ..e., , f.. . . . g.z , , 5.. .         ",
"        . . l , , , { h.}.i.<.j.~ , , , k.. .       . M l., , k n .     . . m., , , ( . .       ",
"          . e Z , , , , , , , , , , , W e .       . . & , , n.'.. .       . o.Y , , w p.. .     ",
"            . e q.r., , , , , , , e.s.e .       . . t., , , 0 . .         . . u., , , s n .     ",
"              . . . v.w.x.y.>.w.B . . .         . # z.A.A.B./..             . C.@.D.A.E.F..     ",
"                . . . . . . . . . . .             . . . . . . .               . . . . . . .     ",
"                        . . .                                                                   ",
"                                                                                                ",
"                                                                                                ",
"                                                                                                ",
"                                                                                                ",
"                                                                                                ",
"                                                                                                ",
"                                                                                                ",
"                                                                                                ",
"                                                                                                "};
