/* XPM */
static const char * hex64_xpm[] = {
"64 64 154 2",
"  	c None",
". 	c #000000",
"+ 	c #030303",
"@ 	c #424242",
"# 	c #686868",
"$ 	c #797979",
"% 	c #696969",
"& 	c #414141",
"* 	c #4C4C4C",
"= 	c #C9C9C9",
"- 	c #FFFFFF",
"; 	c #080808",
"> 	c #C8C8C8",
", 	c #070707",
"' 	c #0D0D0D",
") 	c #EFEFEF",
"! 	c #EEEEEE",
"~ 	c #0B0B0B",
"{ 	c #DADADA",
"] 	c #E7E7E7",
"^ 	c #A2A2A2",
"/ 	c #868686",
"( 	c #E6E6E6",
"_ 	c #D7D7D7",
": 	c #787878",
"< 	c #EDEDED",
"[ 	c #393939",
"} 	c #3A3A3A",
"| 	c #717171",
"1 	c #EBEBEB",
"2 	c #040404",
"3 	c #050505",
"4 	c #2C2C2C",
"5 	c #323232",
"6 	c #636363",
"7 	c #CDCDCD",
"8 	c #C1C1C1",
"9 	c #C7C7C7",
"0 	c #595959",
"a 	c #5D5D5D",
"b 	c #292929",
"c 	c #848484",
"d 	c #808080",
"e 	c #828282",
"f 	c #222222",
"g 	c #2A2A2A",
"h 	c #282828",
"i 	c #444444",
"j 	c #0E0E0E",
"k 	c #101010",
"l 	c #C5C5C5",
"m 	c #EAEAEA",
"n 	c #C0C0C0",
"o 	c #FAFAFA",
"p 	c #F9F9F9",
"q 	c #767676",
"r 	c #F4F4F4",
"s 	c #9E9E9E",
"t 	c #919191",
"u 	c #A6A6A6",
"v 	c #D2D2D2",
"w 	c #D0D0D0",
"x 	c #A5A5A5",
"y 	c #484848",
"z 	c #2D2D2D",
"A 	c #1E1E1E",
"B 	c #B6B6B6",
"C 	c #B4B4B4",
"D 	c #6B6B6B",
"E 	c #FEFEFE",
"F 	c #535353",
"G 	c #E4E4E4",
"H 	c #A1A1A1",
"I 	c #9F9F9F",
"J 	c #E3E3E3",
"K 	c #CBCBCB",
"L 	c #969696",
"M 	c #F7F7F7",
"N 	c #909090",
"O 	c #F6F6F6",
"P 	c #E9E9E9",
"Q 	c #1C1C1C",
"R 	c #272727",
"S 	c #F8F8F8",
"T 	c #818181",
"U 	c #565656",
"V 	c #2E2E2E",
"W 	c #A0A0A0",
"X 	c #A9A9A9",
"Y 	c #262626",
"Z 	c #838383",
"` 	c #DDDDDD",
" .	c #F2F2F2",
"..	c #AFAFAF",
"+.	c #888888",
"@.	c #8B8B8B",
"#.	c #111111",
"$.	c #E2E2E2",
"%.	c #929292",
"&.	c #979797",
"*.	c #131313",
"=.	c #D9D9D9",
"-.	c #B2B2B2",
";.	c #A8A8A8",
">.	c #B9B9B9",
",.	c #C3C3C3",
"'.	c #B7B7B7",
").	c #383838",
"!.	c #949494",
"~.	c #E5E5E5",
"{.	c #939393",
"].	c #FBFBFB",
"^.	c #1A1A1A",
"/.	c #626262",
"(.	c #606060",
"_.	c #D5D5D5",
":.	c #252525",
"<.	c #959595",
"[.	c #1D1D1D",
"}.	c #7C7C7C",
"|.	c #ACACAC",
"1.	c #FCFCFC",
"2.	c #4D4D4D",
"3.	c #7F7F7F",
"4.	c #FDFDFD",
"5.	c #181818",
"6.	c #DEDEDE",
"7.	c #333333",
"8.	c #8A8A8A",
"9.	c #8F8F8F",
"0.	c #212121",
"a.	c #6E6E6E",
"b.	c #AEAEAE",
"c.	c #B5B5B5",
"d.	c #4F4F4F",
"e.	c #121212",
"f.	c #CCCCCC",
"g.	c #666666",
"h.	c #DFDFDF",
"i.	c #010101",
"j.	c #707070",
"k.	c #757575",
"l.	c #777777",
"m.	c #020202",
"n.	c #F5F5F5",
"o.	c #3B3B3B",
"p.	c #E1E1E1",
"q.	c #363636",
"r.	c #C4C4C4",
"s.	c #E0E0E0",
"t.	c #C6C6C6",
"u.	c #3E3E3E",
"v.	c #D3D3D3",
"w.	c #242424",
"                                                                                                                                ",
"                                                                                                                                ",
"                                                                                                                                ",
"                                                                                                                                ",
"                                                                                                                                ",
"                                                                                                                                ",
"                                                                                                                                ",
"                                                                                                                                ",
"                                                                                                                                ",
"                                                                                                                                ",
"                                                                                                                                ",
"                          . . . . . . . . . .                                                                                   ",
"                      . . . . . . . . . . . . . .                                                                               ",
"                  . . . . . + @ # $ $ % & + . . . . .                                                                           ",
"                . . . . * = - - - - - - - - = * . . . .                                                                         ",
"              . . . ; = - - - - - - - - - - - - > , . . .                                                                       ",
"              . . ' ) - - - - - - - - - - - - - - ! ~ . .                                                                       ",
"            . . . { - - - - - ] ^ / / ^ ( - - - - - _ . . .                                                                     ",
"            . . : - - - - < [ . . . . . . } ! - - - - | . .                                                                     ",
"          . . . - - - - 1 2 . . . . . . . . 3 ! - - - - . . .                                                                   ",
"          . . % - - - - 4 . . .         . . . 5 - - - - 6 . .     . . . . . . . . .                     . . . . . . . . .       ",
"        . . . 7 - - - 8 . . .             . . . > - - - 9 . .     . . . . . . . . . .                 . . . . . . . . . .       ",
"        . . . - - - - 0 . .                 . . a - - - - . . . . . b c d d d e f . . .               . . g e d d d c h . .     ",
"        . . i - - - - j . .                 . . k - - - - & . . . . . l - - - - ] . . .             . . . m - - - - n . . .     ",
"        . . $ - - - o . . .                 . . . p - - - q . .   . . + r - - - - s . . .         . . . t - - - - < . . .       ",
"        . . u - - - v . .                     . . w - - - x . .   . . . b - - - - - y . . .       . . z - - - - - A . . .       ",
"        . . = - - - B . .                     . . C - - - 9 . .     . . . D - - - - E ~ . .     . . . m - - - - F . . .         ",
"        . . G - - - H . .                     . . I - - - J . .       . . . C - - - - K . . . . . . t - - - - L . . .           ",
"        . . M - - - t . .                     . . N - - - O . .         . . . P - - - - $ . . . . z - - - - v . . .             ",
"        . . - - - - / . .                     . . / - - - - . .         . . . Q - - - - - R . . . m - - - S ; . .               ",
"      . . . - - - - T . .                     . . T - - - - . . .         . . . U - - - - < . . t - - - - V . . .               ",
"        . . - - - - d . .                     . . d - - - - . .             . . . W - - - - X Y - - - - D . . .                 ",
"        . . - - - - e . .                     . . Z - - - - . .               . . . ` - - - -  .- - - ... . .                   ",
"        . . - - - - +.. .                     . . @.- - - - . .                 . . #.- - - - - - - $.. . .                     ",
"        . . ! - - - %.. .                     . . &.- - - < . .                 . . . i - - - - - - *.. . .                     ",
"        . . { - - - ^ . .                     . . X - - - =.. .                   . . . -.- - - - ;.. . .                       ",
"        . . >.- - - >.. .                     . . ,.- - - '.. .                 . . . ).- - - - - - F . . .                     ",
"        . . !.- - - =.. .                     . . ~.- - - {.. .                 . . ~ ].- - - - - - - ^.. . .                   ",
"        . . /.- - - - . . .                 . . . - - - - (.. .               . . . _.- - - ` - - - - ( . . .                   ",
"        . . :.- - - - z . .                 . . ).- - - - :.. .             . . . <.- - - - [.}.- - - - |.. . .                 ",
"        . . . 1.- - - +.. .                 . . t - - - ].. . .           . . . 2.- - - - 3.. . v - - - - /.. . .               ",
"          . . W - - - p . . .             . . . 4.- - - I . .           . . . 5.- - - - 6.. . . #.- - - - - f . . .             ",
"          . . 7.- - - - 8.. . . . . . . . . . 9.- - - - 5 . .           . . . ~.- - - - 0.. . . . 0 - - - - ! . . .             ",
"          . . . v - - - - % . . . . . . . . a.- - - - w . . .         . . . b.- - - - d . . . . . . c.- - - - >.. . .           ",
"            . . b - - - - - l d.k . . e.F f.- - - - - :.. .         . . . g.- - - - h.. . .     . . i.O - - - - j.. . .         ",
"            . . . k.- - - - - - - - - - - - - - - - a.. . .       . . . R - - - - - f . .       . . . [ - - - - - 4 . . .       ",
"              . . . 3.- - - - - - - - - - - - - - l.. . .         . . m. .- - - - e . . .         . . . {.- - - - n.2 . .       ",
"                . . . o.~.- - - - - - - - - - p.q.. . .         . . . r.- - - - s.. . .             . . . J - - - - t.. . .     ",
"                  . . . . u.<.v.p - - S v {.o.. . . .           . . b c d d d e w.. .                 . . 0.Z d d d c b . .     ",
"                    . . . . . . . . . . . . . . . .               . . . . . . . . . .                 . . . . . . . . . .       ",
"                        . . . . . . . . . . . .                   . . . . . . . . .                     . . . . . . . . .       ",
"                                                                                                                                ",
"                                                                                                                                ",
"                                                                                                                                ",
"                                                                                                                                ",
"                                                                                                                                ",
"                                                                                                                                ",
"                                                                                                                                ",
"                                                                                                                                ",
"                                                                                                                                ",
"                                                                                                                                ",
"                                                                                                                                ",
"                                                                                                                                ",
"                                                                                                                                "};
